<svg width="113" height="112" fill="none" xmlns="http://www.w3.org/2000/svg"><path d="M42.7402 62.1906C49.6965 74.0906 56.6527 85.9687 63.609 97.8687L105.981 81.1562L102.24 64.5969C101.956 66.9375 101.671 69.2562 101.387 71.5969C101.715 73.7187 102.065 75.8187 102.393 77.9406L66.2121 91.3062C60.109 81.3969 54.0059 71.4656 47.9027 61.5562C46.1965 61.7531 44.4684 61.9719 42.7402 62.1906Z" fill="#FFC84A"/><path d="M9.20605 52.8281C21.7404 49.0875 34.2748 45.3469 46.8311 41.6063L103.662 52.8281C91.9592 57.7063 80.2779 62.5844 68.5748 67.4625C48.7779 62.6063 28.9811 57.7281 9.20605 52.8281Z" fill="#FAB005"/><path d="M9.20605 52.8281L16.3373 90.7594C16.9498 94.0187 19.5092 96.5344 22.7686 97.1031L64.0904 104.3C66.2779 104.672 68.5092 104.431 70.5436 103.556L93.9717 93.5812C97.1436 92.225 99.3529 89.2719 99.7686 85.8375L103.662 52.8062C91.8279 56.9844 79.9936 61.1625 68.1811 65.3406L9.20605 52.8281Z" fill="#FFF0CD"/><path d="M7.17188 51.1875C7.47813 52.8719 7.78437 54.5563 8.1125 56.2406C27.8875 60.7688 47.6625 65.3187 67.4594 69.8469C79.9719 65.1656 92.5062 60.4844 105.019 55.8031V50.9688L67.4375 64.05C47.3563 59.7625 27.2531 55.475 7.17188 51.1875Z" fill="#FFC84A"/><path d="M7.17188 51.1875L46.875 39.6375L104.997 50.9688C104.538 51.5813 104.1 52.2156 103.641 52.8281L46.8094 41.6063C34.3406 45.6094 21.85 49.5906 9.38125 53.5938C8.6375 52.8063 7.91563 51.9969 7.17188 51.1875Z" fill="#FFC84A"/><path d="M22.5935 93.0125L22.3747 93.0344C21.8935 93.1 21.456 92.75 21.3903 92.2688L18.131 65.2969C18.0653 64.8156 18.4153 64.3781 18.8966 64.3125L19.1153 64.2906C19.5966 64.225 20.0341 64.575 20.0997 65.0563L23.3591 92.05C23.4247 92.5313 23.0747 92.9688 22.5935 93.0125ZM31.4966 94.8938L31.2778 94.9156C30.7966 94.9813 30.3591 94.6313 30.2935 94.15L27.0341 67.1563C26.9685 66.675 27.3185 66.2375 27.7997 66.1719L28.0185 66.15C28.4997 66.0844 28.9372 66.4344 29.0028 66.9156L32.2622 93.9094C32.3278 94.3906 31.9778 94.8281 31.4966 94.8938ZM40.9685 97.3L40.7497 97.3219C40.2685 97.3875 39.831 97.0375 39.7653 96.5563L36.506 69.5625C36.4403 69.0813 36.7903 68.6438 37.2716 68.5781L37.4903 68.5563C37.9716 68.4906 38.4091 68.8406 38.4747 69.3219L41.7341 96.3156C41.7778 96.8188 41.4497 97.2563 40.9685 97.3ZM50.0903 98.2844L49.8716 98.3063C49.3903 98.3719 48.9528 98.0219 48.8872 97.5406L45.6278 70.5469C45.5622 70.0656 45.9122 69.6281 46.3935 69.5625L46.6122 69.5406C47.0935 69.475 47.531 69.825 47.5966 70.3063L50.856 97.3C50.9216 97.7813 50.5716 98.2406 50.0903 98.2844ZM60.5247 101.369L60.306 101.391C59.8247 101.456 59.3872 101.106 59.3216 100.625L56.0622 73.6313C55.9966 73.15 56.3466 72.7125 56.8278 72.6469L57.0466 72.625C57.5278 72.5594 57.9653 72.9094 58.031 73.3906L61.2903 100.384C61.356 100.866 61.006 101.303 60.5247 101.369ZM75.4653 98.3719H75.2466C74.7653 98.3719 74.3716 97.9781 74.3716 97.4969L74.4591 70.3063C74.4591 69.825 74.8528 69.4313 75.3341 69.4313H75.5528C76.0341 69.4313 76.4278 69.825 76.4278 70.3063L76.3403 97.4969C76.3403 97.9781 75.9466 98.3719 75.4653 98.3719ZM84.5435 94.9813H84.3247C83.8435 94.9813 83.4497 94.5875 83.4497 94.1063L83.5372 66.9156C83.5372 66.4344 83.931 66.0406 84.4122 66.0406H84.631C85.1122 66.0406 85.506 66.4344 85.506 66.9156L85.4185 94.1063C85.4185 94.5875 85.0247 94.9813 84.5435 94.9813ZM92.8341 92.0719H92.6153C92.1341 92.0719 91.7403 91.6781 91.7403 91.1969L91.8278 64.0063C91.8278 63.525 92.2216 63.1313 92.7028 63.1313H92.9216C93.4028 63.1313 93.7966 63.525 93.7966 64.0063L93.7091 91.1969C93.7091 91.6781 93.3153 92.0719 92.8341 92.0719ZM67.4372 104.519C67.3716 104.519 67.3278 104.475 67.3278 104.409V64.05C67.3278 63.9844 67.3716 63.9406 67.4372 63.9406C67.5028 63.9406 67.5466 63.9844 67.5466 64.05V104.388C67.5466 104.453 67.5028 104.519 67.4372 104.519Z" fill="#FAB005"/><path d="M41.6904 61.5781C48.9967 73.675 56.3029 85.7719 63.5873 97.8469L105.959 81.1344L102.219 64.575C101.934 66.9156 101.65 69.2344 101.365 71.575C101.694 73.6969 102.044 75.7969 102.372 77.9188L66.1904 91.2844C59.3654 80.7188 52.5623 70.175 45.7373 59.6094C44.4029 60.2656 43.0467 60.9219 41.6904 61.5781ZM38.8029 58.2094C27.9967 64.925 17.1686 71.6406 6.3623 78.3563C7.30293 80.15 8.26543 81.9438 9.20605 83.7156C20.4498 76.0156 31.6936 68.3375 42.9154 60.6375C41.5373 59.8281 40.1592 59.0188 38.8029 58.2094Z" fill="#FFC84A"/><path d="M42.15 64.8375C44.675 64.8375 46.7219 62.7906 46.7219 60.2656C46.7219 57.7407 44.675 55.6938 42.15 55.6938C39.625 55.6938 37.5781 57.7407 37.5781 60.2656C37.5781 62.7906 39.625 64.8375 42.15 64.8375Z" fill="#FFC84A"/><path d="M38.103 58.625C38.1467 58.45 37.928 58.275 37.7967 58.45C37.3811 58.9531 37.2717 59.7188 37.2717 60.3531C37.2717 61.0313 37.403 61.6875 37.7092 62.3C37.7967 62.4969 38.1249 62.3656 38.0592 62.1469C37.3811 60.3094 37.9936 59.2156 38.103 58.625ZM45.8249 61.425C45.5624 61.9281 45.5624 62.3 45.0811 63.0219C44.753 63.5031 44.3155 63.9188 43.8342 64.2469C43.6155 64.4 43.8124 64.75 44.053 64.6188C44.928 64.1375 45.5842 63.3938 45.9561 62.4969C46.0874 62.1906 46.1967 61.8844 46.1749 61.5344C46.153 61.3375 45.9124 61.25 45.8249 61.425ZM36.003 59.85C35.8717 59.6094 35.5436 59.9156 35.2592 60.0906C35.0405 60.2438 34.8436 60.375 33.8155 61.0969C33.728 61.1625 33.6842 61.25 33.7499 61.3594C33.7936 61.4469 33.9249 61.4906 34.0124 61.425C35.0624 60.725 35.2592 60.5938 35.478 60.4406C35.6967 60.3094 36.1342 60.0906 36.003 59.85Z" fill="#FAB005"/><path d="M48.1217 57.9031C47.5092 49.0656 47.3342 46.2438 47.0279 43.3344C47.0061 43.1375 46.7217 43.1375 46.7217 43.3344C46.8967 47.3594 47.2029 50.7938 47.6842 57.2469C47.7279 57.7938 47.6842 58.4063 47.8373 58.9313C47.8811 59.1063 48.1217 59.0625 48.1436 58.8875C48.1873 58.5594 48.1436 58.2313 48.1217 57.9031Z" fill="#E5E5FF"/><path d="M93.2497 25.4188C91.4122 13.3875 77.0403 5.77501 63.5653 8.85938C60.1528 9.64688 54.6403 10.9156 50.7465 15.9688C46.5028 21.4813 46.984 27.8469 47.159 30.0563C47.2903 31.8938 47.6403 36.5313 50.7247 40.6438C57.134 49.2844 69.7122 47.9938 70.5215 47.9063C69.8872 50.3781 68.8153 51.7781 67.9622 52.6094C66.4965 54.0313 64.3528 54.9938 64.5497 55.475C64.5934 55.6063 64.7903 55.65 64.8997 55.65C71.2872 56.1969 77.5653 53.0031 80.7372 46.9875C89.7059 43.2906 94.5184 33.8406 93.2497 25.4188Z" fill="#3F3F99"/><path d="M68.3343 35.0656C67.7437 32.9 68.728 30.4281 71.2874 27.6937C73.0812 25.7687 75.2905 24.0406 74.9405 21.5906C74.6343 19.4469 72.6218 18.0687 70.4999 18.55C68.4218 19.0312 67.7874 21.0875 67.1749 23.7344C66.8468 25.1125 65.0968 25.3094 64.3093 24.2375C63.4124 22.9906 63.1062 21.4812 63.478 19.8844C63.9374 17.85 65.4687 15.8594 67.3499 14.8312C68.5093 14.1969 69.8437 13.8687 71.2218 13.8687C78.1343 13.8687 81.6343 21.5469 77.6749 26.8844C76.5374 28.4156 75.0718 29.5531 73.6937 30.7344C72.1405 32.0687 71.3312 33.2937 70.8062 35.0656C70.4343 36.3125 68.6624 36.2906 68.3343 35.0656ZM67.2405 40.7094C66.9124 38.9375 68.6624 37.0781 70.7405 37.6031C72.1187 37.7562 73.103 39.1562 72.8624 40.4469C72.8624 40.6656 72.8187 40.8625 72.7749 41.0812C72.753 41.1687 72.7749 41.0812 72.5343 41.6937C72.1624 42.4156 71.4187 42.9187 70.7624 43.0719C68.903 43.4875 67.3499 42.1531 67.2405 40.7094Z" fill="#F1F1FF"/><path d="M92.9438 24.1719C92.8782 23.9531 92.5719 24.0406 92.6157 24.2594C93.9282 31.1281 91.675 38.0844 86.0969 42.5688C85.0469 43.4219 84.6313 43.5531 84.2594 44.0125C84.15 44.1656 84.2375 44.3844 84.4563 44.3406C85.1563 44.1875 85.7469 43.6188 86.2938 43.2031C92.1563 38.5438 94.65 30.9531 92.9438 24.1719ZM87.825 15.3125C87.1469 14.2188 85.9875 13.1906 84.6532 12.6219C84.5875 12.6 84.2594 12.4469 84.1938 12.4469C84.15 12.4469 84.0844 12.4688 84.0625 12.4688C83.9094 12.4469 83.8875 12.6656 83.9969 12.7313C84.0844 12.8844 84.3469 12.9281 84.4782 12.9938C86.7969 14.0438 87.5407 15.9031 87.8032 16.1438C87.9563 16.2969 88.175 16.1438 88.1532 15.9469C88.0875 15.7281 87.9344 15.5094 87.825 15.3125ZM50.7469 37.9313C50.1563 36.5094 49.3688 35.5469 48.6907 32.9C48.0125 30.2094 48.275 28.9406 48.1875 27.4531C48.1657 27.2344 47.8375 27.1688 47.7719 27.3875C47.5532 28.2625 47.575 29.2688 47.6407 30.1656C47.7719 32.0688 48.1875 33.9281 48.9313 35.6781C49.3031 36.5531 49.7188 37.4281 50.3531 38.1281C50.5281 38.3031 50.8344 38.15 50.7469 37.9313ZM101.934 8.55313C100.513 10.0188 99.2 11.5938 97.8657 13.1469C96.5313 14.6781 95.1532 16.1875 93.95 17.8063C93.7969 18.025 94.1469 18.2875 94.3219 18.0906C95.7657 16.6688 97.0563 15.0938 98.3688 13.5625C99.6813 12.0313 101.059 10.5219 102.306 8.92501C102.503 8.66251 102.175 8.29063 101.934 8.55313ZM103.291 24.7625C102.853 24.7625 102.438 24.85 102.022 24.9375C100.95 25.1563 99.1563 25.5719 98.1063 25.8563C97.6907 25.9656 97.8657 26.5563 98.2813 26.4906C99.1563 26.3375 100.031 26.1406 100.906 25.9656C101.738 25.7906 102.656 25.6375 103.444 25.2656C103.663 25.1344 103.531 24.7625 103.291 24.7625ZM48.5813 17.7406C47.9907 16.9313 47.5969 16.5813 44.425 13.3219C43.0032 11.8563 41.5594 10.4125 40.1157 8.94688C39.8532 8.68438 39.4594 9.07813 39.7219 9.34063C43.0469 12.8844 42.8938 12.7313 45.9563 15.925C46.6563 16.6688 47.3344 17.4344 48.1438 18.0688C48.3844 18.2438 48.8 18.0031 48.5813 17.7406ZM44.4688 24.2813C44.1625 24.0844 44.2063 24.0625 39.6344 22.9469C39.4157 22.8813 39.1969 22.8156 38.9563 22.8813C38.7594 22.9469 38.6719 23.2094 38.825 23.3625C39 23.5375 39.2188 23.5594 39.4375 23.625C41.1875 24.1063 40.8375 24.0188 42.8938 24.5438C43.3532 24.675 43.8344 24.8281 44.3157 24.8063C44.6 24.7844 44.7094 24.4344 44.4688 24.2813ZM43.8125 32.3313C42.4563 33.0531 41.0782 33.775 39.7438 34.5406C38.3875 35.2844 37.0094 35.9844 35.7407 36.8594C35.4782 37.0563 35.6969 37.4281 36.0032 37.2969C37.425 36.6844 38.7375 35.875 40.0938 35.1094C41.45 34.3656 42.7844 33.5781 44.1188 32.8125C44.4031 32.6375 44.1188 32.1563 43.8125 32.3313ZM100.863 40.4031C100.359 39.8563 98.8719 38.9375 98.2375 38.5656C97.3188 37.9969 96.4 37.4281 95.4375 36.9031C94.9782 36.6625 94.6282 37.2969 95.0438 37.5813C95.8969 38.1719 98.2813 39.6375 99.2 40.1406C99.6594 40.3813 100.141 40.6656 100.644 40.7969C100.863 40.8406 101.016 40.5563 100.863 40.4031Z" fill="#8D8DD3"/></svg>